<?xml version="1.0" standalone="no"?>
<!DOCTYPE svg PUBLIC "-//W3C//DTD SVG 20010904//EN"
 "http://www.w3.org/TR/2001/REC-SVG-20010904/DTD/svg10.dtd">
<svg version="1.0" xmlns="http://www.w3.org/2000/svg"
 width="512.000000pt" height="512.000000pt" viewBox="0 0 512.000000 512.000000"
 preserveAspectRatio="xMidYMid meet">
<metadata>
Created by potrace 1.14, written by Peter Selinger 2001-2017
</metadata>
<g transform="translate(0.000000,512.000000) scale(0.100000,-0.100000)"
fill="#000000" stroke="none">
<path d="M1453 4739 c-71 -27 -146 -97 -179 -167 -39 -81 -40 -192 -2 -274 33
-71 95 -133 165 -165 l53 -25 -2 -301 -3 -300 -72 -22 c-93 -29 -176 -76 -238
-137 -28 -27 -57 -47 -66 -45 -8 2 -117 66 -241 140 l-225 137 3 82 c2 63 -2
95 -17 135 -27 70 -97 146 -167 180 -74 36 -190 39 -264 6 -66 -30 -133 -95
-165 -162 -24 -48 -28 -67 -27 -141 0 -66 6 -95 23 -131 35 -73 86 -125 154
-159 110 -54 222 -46 326 24 l50 34 138 -83 c76 -46 184 -111 240 -144 l101
-62 -10 -32 c-5 -18 -14 -47 -20 -66 -17 -59 -14 -199 7 -283 10 -43 17 -79
14 -82 -21 -19 -460 -276 -472 -276 -9 0 -19 5 -22 10 -10 16 -85 53 -133 66
-140 39 -298 -36 -367 -173 -26 -51 -30 -68 -30 -143 1 -101 21 -155 85 -224
64 -69 136 -100 235 -100 68 -1 89 3 137 27 70 34 140 110 167 180 15 40 19
72 17 135 l-3 83 221 134 c122 73 229 137 239 140 12 5 34 -8 77 -48 71 -66
179 -122 273 -141 72 -15 199 -14 256 3 19 6 37 8 42 6 8 -6 479 -951 479
-963 0 -4 -29 -35 -64 -68 -113 -110 -177 -259 -176 -409 0 -44 2 -91 5 -105
11 -60 18 -85 25 -100 5 -8 20 -40 35 -71 53 -111 163 -212 285 -262 93 -38
143 -47 245 -43 156 7 294 72 399 187 50 56 110 159 122 211 19 81 23 112 24
184 0 164 -70 315 -202 433 -21 18 -38 37 -38 41 0 12 470 959 478 964 4 2 34
-2 67 -9 58 -12 179 -12 238 0 93 19 222 91 286 159 19 20 40 36 46 36 5 0
100 -55 210 -121 110 -67 214 -130 231 -141 l32 -19 -3 -82 c-4 -100 16 -163
76 -230 71 -81 155 -117 262 -113 116 5 229 84 280 196 16 35 21 65 21 130 -1
107 -23 162 -97 233 -113 110 -275 123 -410 33 l-49 -33 -231 140 c-128 76
-234 141 -236 143 -3 3 1 26 8 52 31 109 32 261 3 344 -11 31 -17 60 -13 65 5
8 388 244 455 280 14 8 29 3 68 -23 104 -70 215 -78 325 -24 69 34 124 91 156
160 29 65 30 197 0 262 -30 66 -96 133 -162 165 -46 22 -70 27 -136 27 -67 1
-89 -3 -136 -26 -70 -35 -122 -87 -157 -157 -23 -49 -27 -68 -27 -150 l-1 -93
-229 -139 c-127 -76 -234 -139 -239 -139 -5 0 -32 22 -60 48 -67 63 -132 101
-231 133 l-80 27 -3 300 -2 300 52 25 c69 31 134 96 167 166 37 80 36 192 -3
272 -31 66 -98 132 -164 162 -72 32 -189 30 -262 -4 -72 -34 -126 -88 -161
-162 -25 -53 -28 -70 -26 -141 5 -135 68 -234 185 -289 26 -12 50 -26 53 -30
3 -5 6 -142 5 -305 l-1 -296 -63 -17 c-300 -78 -486 -384 -417 -684 28 -121
91 -224 191 -317 l43 -39 -113 -227 c-62 -125 -171 -343 -241 -484 -143 -289
-116 -261 -227 -240 -56 11 -163 7 -215 -7 -21 -6 -43 -11 -49 -11 -7 0 -47
71 -89 158 -43 86 -150 301 -237 476 -111 222 -158 326 -153 340 3 12 22 34
43 51 111 87 189 259 190 421 2 265 -188 511 -435 564 -29 7 -54 15 -55 18 -4
17 -6 569 -2 589 2 13 14 24 31 28 40 9 118 68 153 117 65 89 77 231 30 331
-70 147 -256 223 -407 166z m1236 -3410 c181 -63 295 -227 287 -414 -6 -141
-69 -256 -184 -336 -165 -116 -398 -89 -538 63 -154 166 -148 423 12 584 50
49 134 99 183 109 13 2 26 6 28 9 13 13 162 2 212 -15z"/>
</g>
</svg>
